<svg width="266" height="323" viewBox="0 0 266 323" fill="none" xmlns="http://www.w3.org/2000/svg">
<path d="M130.96 255.711C127.462 249.201 123.963 242.69 120.431 235.39C119.931 229.992 119.466 225.384 119 220.775C119 220.775 119.172 220.781 119.648 220.882C124.53 220.655 128.936 220.328 133.342 220C135.251 221.477 136.594 222.662 134.503 225.226C133.355 226.635 133.884 229.301 134.208 231.334C134.814 235.126 135.823 238.87 136.436 243.216C136.273 245.857 136.338 247.917 136.405 249.976C136.507 253.127 138.597 256.63 134.283 259C134.283 259 134.275 258.934 134.274 258.597C133.505 257.757 132.737 257.255 131.968 256.753C131.968 256.753 132.067 256.747 132.065 256.579C131.695 256.177 131.328 255.944 130.96 255.711Z" fill="#B6AB70"/>
<path d="M134.076 219.97C129.371 220.652 124.449 220.856 119 220.994C123.447 218.15 128.415 215.255 134.076 219.97Z" fill="#CEB87C"/>
<path d="M121.154 219.226C123.49 227.413 124.992 235.802 126.514 244.955C119.556 237.714 113.446 229.574 121.154 219.226Z" fill="#CEB87C"/>
<path d="M132.997 99.5189C129.631 100.01 126.218 100.651 122.784 100.883C119.36 101.113 115.915 100.933 112 100.933C112 97.6481 112 94.5701 112 91.4232C127.736 86.8464 132.527 88.4191 133 99.0141C132.963 99.6283 132.941 99.4895 132.997 99.5189ZM117.14 98.8532C117.443 98.7022 117.746 98.5511 118.049 98.4002C117.69 98.4219 117.331 98.4437 117.14 98.8532Z" fill="#B6AB70"/>
<path d="M121.796 175.949C121.623 174.928 121.45 173.906 121 172.601C122.951 164.112 125.179 155.907 127.67 147.314C129.163 146.557 130.393 146.187 131.864 146C132.107 146.183 132.003 146.78 131.718 147.316C131.542 148.888 131.651 149.925 131.759 150.961C129.593 158.758 127.426 166.556 124.98 174.728C123.982 175.338 123.263 175.573 122.249 175.939C121.953 176.07 121.796 175.949 121.796 175.949Z" fill="#B6AB70"/>
<path d="M164.697 61.3127C165.418 60.0276 165.891 58.4921 166.898 57.496C177.219 47.2852 188.823 38.9988 202.989 35.0481C218.033 30.8523 230.927 34.8062 241.601 46.1401C253.419 58.6896 259.853 73.8778 262.819 90.5923C270.778 135.45 262.087 177.284 239.447 216.488C238.91 217.417 238.008 218.134 236.671 219.625C235.909 217.897 235.193 216.859 234.993 215.73C230.301 189.172 217.289 166.785 200.091 146.581C197.457 143.487 194.031 140.621 190.372 139.007C188.008 137.965 183.666 138.393 181.84 140.006C180.048 141.589 178.885 146.241 179.928 148.27C184.548 157.26 189.875 165.91 195.297 174.46C203.046 186.678 211.106 198.7 219.015 210.816C219.467 211.509 219.778 212.296 220.128 213.052C228.483 231.086 226.927 238.626 211.902 251.411C191.788 268.528 169.968 282.37 143.925 289.086C133.363 291.81 123.341 296.717 113.192 300.917C104.462 304.53 97.549 310.331 93.3546 319.036C92.8993 319.981 92.0285 320.726 90.6566 322.421C89.7188 319.818 88.5894 318.084 88.5397 316.319C88.2015 304.312 81.017 295.928 73.4704 287.877C63.6783 277.43 53.5383 267.31 43.5559 257.041C42.7434 256.206 41.9839 255.318 41.2123 254.443C30.2682 242.035 30.1286 235.126 42.1536 223.773C54.9791 211.664 68.5524 200.35 81.6707 188.546C84.6098 185.901 87.5403 182.963 89.4719 179.586C90.6771 177.48 91.0579 173.612 89.8746 171.791C88.6943 169.976 84.7096 168.415 82.636 169.032C75.3696 171.195 67.8737 173.463 61.415 177.293C44.519 187.312 30.1725 200.037 23.056 219.189C22.8278 219.804 22.4421 220.369 22.0673 220.914C21.8902 221.172 21.5651 221.328 20.9638 221.798C20.2186 221.134 19.1029 220.578 18.6678 219.688C10.9534 203.913 4.3717 187.78 3.04339 169.98C1.83917 153.843 9.60498 142.787 22.5557 134.337C36.5057 125.235 51.8472 119.312 67.4513 113.909C69.6503 113.148 71.8791 112.461 74.0392 111.602C78.0139 110.02 80.839 107.499 81.0161 102.822C81.1984 98.008 78.7158 94.8529 74.621 93.0248C65.6541 89.0215 56.7133 90.5149 47.8772 93.679C30.6604 99.8442 16.4684 110.214 5.01959 124.444C4.18164 125.485 2.67712 125.99 1.48251 126.745C0.965971 125.473 -0.0165727 124.196 0.00021232 122.932C0.610167 76.9182 16.7387 38.6104 56.5606 13.0151C75.1633 1.05823 95.826 -3.30755 117.759 2.64496C138.398 8.24662 151.418 22.1113 158.594 41.7689C160.749 47.6717 161.998 53.9053 163.492 60.3437C160.266 64.7834 156.581 68.5398 154.259 73.0049C141.847 96.8703 134.828 122.682 127.502 148.75C125.538 155.637 123.781 162.213 121.886 169.133C116.925 187.676 110.234 205.386 107.23 224.143C109.045 222.674 110.01 220.909 110.604 219.026C112.697 212.397 114.664 205.728 116.677 199.073C119.506 189.723 122.333 180.372 125.381 170.721C127.31 164.172 129.018 157.922 130.824 151.321C130.905 150.248 130.887 149.527 130.894 148.564C130.919 148.323 131 147.844 131.319 147.662C135.165 136.025 138.616 124.547 142.239 113.124C147.668 96.0032 154.221 79.3666 163.881 64.1027C164.379 63.3158 164.435 62.2491 164.697 61.3127ZM131.878 255.833C131.878 255.833 131.794 255.839 132.006 256.418C132.611 256.94 133.217 257.462 133.757 257.98C133.757 257.98 133.764 258.045 134.057 258.565C134.788 259.082 135.519 259.6 137.752 261.18C137.048 254.083 136.487 248.431 135.79 241.981C135.074 238.287 134.216 234.612 133.7 230.889C133.424 228.894 132.974 226.277 133.951 224.895C135.731 222.377 134.588 221.214 132.593 219.121C128.264 216.394 124.589 218.576 120.903 220.531C120.903 220.531 120.757 220.526 120.092 220.688C117.155 225.887 119.368 230.422 122.003 235.646C124.981 242.036 127.959 248.426 131.133 255.275C131.307 255.575 131.556 255.79 131.878 255.833ZM129.589 96.5648C132.336 93.6187 131.745 91.2388 127.856 90.7044C123.882 90.1584 119.73 90.1631 115.771 90.7276C114.63 90.8902 113.041 93.9052 113.197 95.4569C113.349 96.9579 115.599 99.5235 116.728 99.4209C120.884 99.0432 124.957 97.7523 128.992 96.7731C128.992 96.7731 129.006 96.848 129.589 96.5648ZM171.981 268.121C173.671 264.594 176.242 261.223 176.898 257.514C179.805 241.078 177.494 224.939 172.109 209.335C170.027 203.303 166.845 197.476 163.226 192.198C159.563 186.855 153.646 185.491 149.201 187.613C144.618 189.801 142.763 194.646 144.507 201.503C146.062 207.618 148.01 213.646 150.056 219.62C155.072 234.265 160.166 248.886 165.431 263.443C166.357 266.006 166.39 270.46 171.981 268.121ZM51.9882 149.426C50.2076 152.637 51.946 153.953 54.8079 153.798C57.7436 153.639 60.6404 152.763 63.8633 152.141C63.9914 158.227 68.5083 157.61 72.6736 157.454C87.2246 156.91 97.684 148.308 107.647 139.114C108.886 137.971 108.913 133.079 107.792 132.258C104.128 129.575 100.82 125.501 95.1276 126.871C79.0836 130.735 63.9959 136.337 51.9882 149.426ZM226.003 106.21C220.699 101.014 214.773 96.913 207.348 95.3217C203.855 94.573 200.823 95.2999 199.365 98.6347C197.961 101.848 199.758 104.127 202.444 106.175C214.461 115.342 226.35 124.677 238.268 133.973C241.555 136.537 244.784 139.174 248.528 142.167C248.694 133.839 239.439 119.404 226.003 106.21ZM95.7115 65.6093C93.7446 64.4044 91.8246 62.251 89.8031 62.1511C78.092 61.5721 66.3572 61.3914 54.6298 61.3657C53.5874 61.3634 52.5404 63.4352 51.4956 64.5438C52.667 65.2951 53.7525 66.4636 55.0247 66.7258C60.5429 67.863 66.121 68.7057 71.6669 69.7127C78.0428 70.8705 84.3829 72.2621 90.7921 73.1765C92.7554 73.4565 95.5977 73.1418 96.7293 71.9037C97.6161 70.9334 96.4851 68.119 95.7115 65.6093ZM171.912 163.493C171.561 162.567 171.378 161.526 170.831 160.736C168.14 156.852 166.518 153.173 170.465 148.892C171.299 147.986 171.027 144.419 170.132 143.844C166.143 141.284 161.743 139.364 156.799 136.862C156.342 138.299 154.797 140.531 155.378 141.75C159.21 149.792 163.305 157.728 167.752 165.448C169.159 167.889 171.384 167.745 171.912 163.493ZM69.9517 231.44C69.7011 233.811 69.4505 236.183 69.1999 238.554C71.604 237.579 74.5981 237.192 76.2827 235.501C79.2815 232.49 81.7031 228.818 83.8913 225.14C84.5274 224.071 83.5481 222.041 83.3093 220.451C81.849 220.706 79.9098 220.456 79.0151 221.306C75.9091 224.257 73.1656 227.589 69.9517 231.44ZM143.793 267.281C144.747 268.724 145.702 270.167 147.071 272.236C150.72 267.14 149.382 262.575 147.907 258.206C147.534 257.097 145.56 256.529 144.322 255.712C143.42 257.117 141.777 258.525 141.785 259.924C141.797 262.143 142.914 264.355 143.793 267.281Z" fill="#2D5B3A"/>
<path d="M127.71 148.44C134.828 122.682 141.847 96.8703 154.259 73.0049C156.581 68.5398 160.266 64.7835 163.673 60.6874C164.024 60.6748 164.313 61.0466 164.505 61.1797C164.435 62.2492 164.379 63.3158 163.881 64.1027C154.221 79.3666 147.668 96.0032 142.239 113.124C138.616 124.547 135.165 136.025 131.127 147.515C129.649 147.847 128.68 148.143 127.71 148.44Z" fill="#CEB87C"/>
<path d="M52.2061 149.133C63.9957 136.337 79.0836 130.735 95.1276 126.871C100.82 125.501 104.128 129.575 107.792 132.258C108.913 133.079 108.886 137.971 107.647 139.114C97.684 148.308 87.2246 156.91 72.6736 157.454C68.5083 157.61 63.9914 158.227 63.8633 152.141C60.6404 152.763 57.7436 153.639 54.8079 153.798C51.946 153.953 50.2074 152.637 52.2061 149.133Z" fill="#B6AB70"/>
<path d="M95.981 65.8667C96.4851 68.119 97.6161 70.9334 96.7293 71.9037C95.5977 73.1418 92.7554 73.4565 90.7921 73.1765C84.3829 72.2621 78.0428 70.8705 71.6669 69.7127C66.121 68.7057 60.5429 67.863 55.0247 66.7258C53.7525 66.4636 52.667 65.2951 51.4956 64.5438C52.5404 63.4352 53.5874 61.3634 54.6298 61.3657C66.3572 61.3914 78.092 61.5721 89.8031 62.1511C91.8246 62.251 93.7446 64.4045 95.981 65.8667Z" fill="#B6AB70"/>
<path d="M171.933 163.889C171.384 167.745 169.159 167.889 167.752 165.448C163.305 157.728 159.21 149.792 155.378 141.75C154.797 140.531 156.342 138.299 156.799 136.862C161.743 139.364 166.143 141.284 170.132 143.844C171.027 144.419 171.299 147.986 170.465 148.892C166.518 153.173 168.14 156.852 170.831 160.736C171.378 161.526 171.561 162.567 171.933 163.889Z" fill="#B6AB70"/>
<path d="M125.161 171.022C122.333 180.372 119.506 189.723 116.677 199.073C114.664 205.728 112.697 212.397 110.604 219.026C110.01 220.909 109.045 222.674 107.23 224.143C110.234 205.386 116.925 187.676 122.104 169.36C122.598 170.062 122.734 170.881 122.706 171.927C122.472 172.819 122.403 173.484 122.333 174.149C122.492 174.157 122.652 174.164 122.811 174.172C122.913 173.414 123.014 172.655 123.288 171.742C124.027 171.398 124.594 171.21 125.161 171.022Z" fill="#CEB87C"/>
<path d="M70.1178 231.108C73.1655 227.589 75.9091 224.257 79.0151 221.306C79.9098 220.456 81.849 220.706 83.3093 220.451C83.5481 222.041 84.5274 224.071 83.8913 225.14C81.7031 228.818 79.2815 232.49 76.2827 235.501C74.5981 237.192 71.604 237.579 69.1999 238.554C69.4505 236.183 69.7009 233.811 70.1178 231.108Z" fill="#B6AB70"/>
<path d="M143.678 266.926C142.914 264.355 141.797 262.143 141.785 259.924C141.777 258.525 143.42 257.117 144.322 255.712C145.56 256.529 147.534 257.097 147.907 258.206C149.382 262.575 150.72 267.14 147.071 272.236C145.702 270.167 144.747 268.724 143.678 266.926Z" fill="#B6AB70"/>
<path d="M129.061 96.8049C124.957 97.7523 120.884 99.0432 116.728 99.4209C115.599 99.5235 113.349 96.9579 113.197 95.4569C113.041 93.9052 114.63 90.8902 115.771 90.7276C119.73 90.1631 123.882 90.1584 127.856 90.7044C131.745 91.2388 132.336 93.6187 129.32 96.3748C128.736 90.7962 125.774 89.9471 116.047 92.4181C116.047 94.1171 116.047 95.779 116.047 97.5525C118.467 97.5525 120.597 97.6497 122.714 97.5252C124.836 97.4003 126.946 97.0541 129.061 96.8049Z" fill="#CEB87C"/>
<path d="M133.911 258.305C137.436 255.718 135.657 252.281 135.57 249.188C135.513 247.166 135.458 245.144 135.664 242.95C136.487 248.431 137.048 254.083 137.752 261.18C135.519 259.6 134.788 259.082 133.911 258.305Z" fill="#CEB87C"/>
</svg>
