<svg width="527" height="595" viewBox="0 0 527 595" fill="none" xmlns="http://www.w3.org/2000/svg">
<path d="M111.473 163.54C114.026 159.441 113.169 156.022 111.24 151.972C107.987 145.141 105.922 137.811 111.119 130.752C113.445 127.592 116.696 125.452 119.92 123.319C130.626 116.235 142.683 112.355 154.806 108.637C167.767 104.661 181.031 101.906 194.301 99.2873C213.548 95.489 233.059 93.3663 252.519 90.9673C256.893 90.4281 261.252 89.6812 265.641 89.3828C268.814 89.1671 270.783 87.6311 272.688 85.2662C278.279 78.3225 284.598 72.16 293.406 69.4603C301.124 67.0945 308.854 67.1226 316.317 70.547C322.248 73.2684 325.94 77.8497 326.677 84.4242C326.982 87.1461 327.783 88.332 330.851 88.4983C340.551 89.0244 350.037 90.8489 359.289 93.9746C371.89 98.2316 375.092 105.821 372.707 118.798C371.721 124.161 372.471 127.674 375.989 131.436C379.897 135.615 383.138 140.416 387.029 144.613C396.342 154.66 400.686 166.454 401.914 180.074C403.564 198.374 406.364 216.569 408.668 234.809C411.263 255.353 413.838 275.899 416.455 296.44C419.447 319.921 422.477 343.397 425.486 366.876C425.696 368.514 425.797 370.17 426.101 371.789C426.305 372.881 425.95 374.388 427.666 374.69C429.387 374.992 430.547 374.307 431.531 372.839C435.222 367.336 438.45 361.567 441.669 355.785C442.311 354.632 442.528 352.411 444.259 352.866C446.648 353.494 448.918 354.77 451.054 356.07C451.831 356.543 451.016 357.722 450.633 358.472C446.77 366.042 442.241 373.224 437.833 380.478C436.778 382.214 435.149 382.191 433.488 382.194C425.217 382.208 416.946 382.214 408.675 382.213C301.702 382.205 194.73 382.171 87.7584 382.271C83.5929 382.275 80.8607 381.179 78.4109 377.697C67.7152 362.491 60.2179 345.749 54.1226 328.317C50.2631 317.279 47.5978 305.919 45.6246 294.398C44.9816 290.643 45.1966 290.388 49.1208 290.125C54.326 289.776 54.2407 289.791 55.1001 294.866C59.8202 322.744 70.2036 348.404 85.4105 372.181C86.6127 374.061 87.9812 374.851 90.248 374.818C98.5172 374.698 106.79 374.72 115.06 374.802C117.451 374.825 118.327 374.297 117.972 371.579C113.838 339.904 109.842 308.21 105.802 276.521C102.78 252.809 99.7271 229.1 96.7327 205.384C96.0363 199.869 97.3383 194.607 99.5357 189.626C103.361 180.954 107.414 172.383 111.473 163.54ZM404.308 263.154C404.308 263.154 404.319 263.181 404.3 262.588C404.208 261.269 404.18 259.942 404.016 258.632C400.744 232.608 397.495 206.581 394.122 180.571C393.727 177.52 393.959 174.283 392.448 171.215C383.464 178.309 373.325 182.628 363.109 186.783C360.083 188.013 357.851 187.265 357.007 184.845C355.98 181.9 357.919 180.68 360.223 179.677C365.068 177.568 369.928 175.486 374.698 173.219C379.69 170.847 384.394 168.004 388.466 164.179C390.174 162.574 390.318 161.206 388.798 159.397C386.53 156.698 384.471 153.823 382.24 151.092C377.028 144.712 371.766 138.372 366.541 132.036C366.031 132.256 365.678 132.318 365.447 132.52C357.161 139.761 347.3 144.083 337.133 147.845C323.598 152.853 309.691 156.505 295.646 159.792C280.407 163.358 265.013 165.961 249.526 167.973C239.277 169.305 228.958 170.172 218.64 171.007C210.307 171.681 201.958 172.204 193.633 172.446C180.918 172.816 168.175 172.71 155.463 171.54C143.778 170.466 132.259 168.908 121.649 163.432C121.296 163.25 120.821 163.307 120.138 163.217C115.396 173.563 110.691 183.874 105.938 194.162C104.904 196.401 106.144 197.414 107.87 198.287C113.135 200.952 118.8 202.305 124.535 203.48C132.319 205.074 140.224 205.739 148.086 206.739C150.441 207.039 152.178 208.193 151.991 210.745C151.808 213.245 150.003 214.267 147.602 214.291C147.052 214.297 146.496 214.319 145.951 214.262C132.688 212.853 119.491 211.116 106.867 206.485C106.291 206.274 105.634 205.896 104.792 206.654C104.792 207.314 104.7 208.186 104.805 209.034C107.249 228.7 109.688 248.367 112.181 268.028C114.964 289.983 117.809 311.931 120.61 333.885C122.212 346.448 123.758 359.018 125.399 371.576C125.571 372.888 125.542 374.684 127.607 374.711C130.138 374.745 132.751 375.024 135.176 374.496C137.141 374.068 136.585 371.507 137.392 370C138.92 367.145 141.313 366.763 143.438 369.252C144.206 370.152 144.648 371.331 145.238 372.383C145.775 373.339 146.214 374.601 147.449 374.633C151.473 374.74 155.501 374.673 159.256 374.673C160.024 373.296 159.476 372.497 159.266 371.667C156.446 360.54 157.92 350.268 165.256 341.12C174.778 329.246 187.513 322.758 201.957 319.104C207.283 317.757 212.786 317.028 217.82 314.653C219.242 313.982 220.615 313.116 220.678 311.325C220.746 309.401 219.376 308.358 217.882 307.564C216.102 306.62 214.166 306.222 212.139 306.281C195 306.78 180.612 313.628 168.388 325.353C164.493 329.089 160.905 333.146 156.988 336.856C154.107 339.585 151.876 338.887 150.489 335.209C150.09 334.149 150.056 333.078 150.009 331.969C149.825 327.66 150.255 323.395 150.695 319.119C152.075 305.722 155.597 292.957 161.735 280.941C167.413 269.825 176.486 263.611 188.759 261.481C198.512 259.789 208.038 260.846 217.613 262.53C223.358 263.54 228.963 265.343 234.82 265.691C237.276 265.837 239.954 265.738 241.069 263.043C242.132 260.472 240.238 258.582 238.605 257.001C233.308 251.873 226.752 249.526 219.511 248.982C210.277 248.288 201.687 251.095 193.16 254.079C188.905 255.567 184.737 257.304 180.505 258.861C178.699 259.526 176.765 259.891 175.242 258.313C173.585 256.595 174.207 254.655 175.094 252.784C176.047 250.776 177.266 248.917 178.792 247.328C188.718 236.988 199.034 227.055 210.051 217.871C220.046 209.54 231.233 203.753 244.24 201.736C262.399 198.919 279.878 208.201 287.786 224.785C290.896 231.306 292.334 238.255 293.639 245.727C298.075 236.629 302.497 228.129 307.919 220.2C312.902 212.913 318.169 205.841 324.643 199.778C326.33 198.198 328.345 197.539 330.19 199.512C331.855 201.292 331.808 203.294 330.173 205.139C327.909 207.694 325.582 210.194 323.308 212.741C314.534 222.571 308.466 234.106 302.42 245.672C304.196 244.459 305.771 243.092 307.387 241.775C324.33 227.971 343.465 226.891 361.096 238.751C371.175 245.531 376.203 255.76 379.811 266.803C383.282 277.428 384.717 288.384 384.791 299.601C384.853 309.12 383.87 318.493 382.368 327.843C381.987 330.209 381.7 332.974 378.554 333.303C375.571 333.615 374.775 331.071 373.895 328.957C372.073 324.578 370.143 320.253 367.727 316.17C362.206 306.839 354.798 299.484 344.952 294.75C343.64 294.119 342.272 293.276 340.694 294.139C340.935 295.863 342.3 296.373 343.281 297.173C348.754 301.635 354.146 306.196 358.611 311.701C365.147 319.761 369.617 328.839 369.849 339.342C370.077 349.667 366.845 359.272 362.123 368.399C361.136 370.307 359.674 372.017 359.192 374.255C359.663 374.459 359.948 374.689 360.235 374.69C367.953 374.727 375.672 374.717 383.39 374.772C385.409 374.786 385.637 373.625 385.711 371.991C385.909 367.61 386.046 363.21 386.571 358.861C387.862 348.153 393.769 339.309 398.68 330.105C400.419 326.846 403.694 327.201 405.169 330.641C406.777 334.392 407.731 338.39 408.394 342.403C410.029 352.3 411.485 362.225 409.182 372.242C408.873 373.583 409.183 374.762 410.899 374.727C413.28 374.678 415.709 375.186 418.395 374.204C417.523 366.858 416.687 359.548 415.785 352.247C413.014 329.83 410.292 307.407 407.389 285.008C406.443 277.706 405.968 270.33 404.308 263.154ZM335.672 308.297C344.62 318.378 350.875 329.827 353.548 343.14C354.532 348.043 354.678 352.947 354.161 357.899C353.959 359.831 352.973 360.964 351.001 361.029C348.841 361.099 348.177 359.624 348.003 357.824C347.887 356.62 347.829 355.397 347.9 354.191C348.212 348.902 346.585 343.95 345.15 339.004C341.816 327.514 335.168 317.995 327.022 309.423C316.239 298.075 303.697 289.314 289.119 283.495C286.64 282.505 285.06 282.608 284.006 285.433C283.047 288.002 281.568 290.371 280.421 292.875C275.831 302.893 275.092 299.929 282.043 308.57C282.25 308.827 282.422 309.112 282.624 309.374C297.067 328.049 306.189 348.966 309.161 372.464C309.31 373.649 309.502 374.732 310.977 374.726C314.25 374.711 317.541 375.069 320.96 374.478C320.867 371.339 320.338 368.428 319.547 365.596C317.433 358.016 313.721 351.142 309.998 344.263C307.126 338.955 304.047 333.695 303.22 327.544C302.77 324.2 303.209 320.922 306.085 318.921C308.754 317.064 311.88 317.328 314.914 318.633C318.289 320.084 320.619 322.753 322.966 325.357C334.331 337.969 339.975 352.934 341.01 369.762C341.11 371.392 340.961 373.235 342.29 374.395C343.994 375.883 349.846 374.525 351.155 372.418C353.482 368.675 355.872 364.951 357.615 360.889C362.758 348.902 364.713 336.841 358.379 324.582C354.502 317.079 348.726 311.248 342.419 305.814C339.419 303.229 336.104 300.978 333.568 297.878C329.538 292.95 331.293 287.867 337.523 286.474C340.382 285.835 343.202 285.964 345.96 287.101C356.045 291.26 363.876 298.183 370.211 306.908C372.179 309.619 373.935 312.483 375.914 315.467C376.838 313.83 376.909 312.4 377.016 310.996C377.473 304.978 377.4 298.971 377.272 292.928C377.017 280.885 373.668 269.744 368.854 258.919C361.322 241.982 339.613 234.589 325.212 239.921C316.114 243.291 309.088 249.291 302.774 256.311C299.944 259.458 296.835 262.457 295.099 266.402C295.744 267.012 296.306 266.886 296.803 266.668C301.96 264.398 307.381 263.024 312.828 261.646C331.067 257.034 347.277 261.244 361.798 272.743C365.333 275.542 368.552 278.75 371.204 282.456C372.378 284.095 372.675 285.781 370.925 287.124C369.315 288.359 367.605 288.102 366.147 286.682C365.517 286.069 364.993 285.349 364.391 284.706C354.124 273.745 341.695 267.317 326.48 267.433C314.817 267.522 304.033 271.37 293.638 276.376C293.431 276.476 293.374 276.888 293.244 277.159C309.864 284.016 323.688 294.512 335.672 308.297ZM285.765 262.358C285.739 252.25 286.224 242.123 282.383 232.404C277.054 218.915 267.568 210.717 253 209.144C243.056 208.07 234.13 211.645 225.724 216.476C213.371 223.575 203.456 233.707 193.118 243.289C191.935 244.387 190.349 245.277 189.698 247.45C191.188 246.987 192.253 246.739 193.253 246.333C201.814 242.856 210.692 240.901 219.937 241.585C230.788 242.389 240.461 245.876 246.779 255.484C251.587 262.796 248.496 270.442 240.015 272.664C238.184 273.144 236.329 273.286 234.444 273.217C230.23 273.063 226.188 271.937 222.097 271.086C211.961 268.978 201.799 267.264 191.381 268.657C184.776 269.54 178.671 271.64 173.909 276.47C167.047 283.429 163.758 292.201 161.433 301.994C162.201 301.437 162.556 301.209 162.879 300.942C179.478 287.21 199.006 281.025 220.087 279.648C237.556 278.508 254.547 281.718 270.932 287.847C273.416 288.776 274.469 288.155 275.483 285.951C277.092 282.45 278.905 279.039 280.745 275.651C281.476 274.305 281.429 273.299 280.479 272.065C274.365 264.117 268.512 255.96 262.196 248.176C254.886 239.167 246.058 232.249 234.203 230.133C232.466 229.823 231 228.836 231.059 226.862C231.114 224.985 232.443 223.935 234.208 223.519C235.399 223.238 236.592 223.329 237.811 223.555C246.637 225.195 254.107 229.447 260.694 235.388C269.204 243.063 275.456 252.587 282.175 261.728C283.044 262.911 283.74 264.314 285.477 265.053C285.579 264.145 285.649 263.512 285.765 262.358ZM220.973 345.856C226.992 347.581 229.325 352.563 226.932 358.843C224.919 364.125 221.404 368.315 217.092 371.897C216.219 372.622 214.965 373.052 214.66 374.768C219.608 374.768 224.43 374.679 229.246 374.809C231.361 374.867 232.43 373.932 233.277 372.15C239.053 360.011 244.907 347.91 250.676 335.768C251.358 334.334 252.429 332.953 252.173 331.221C251.085 330.445 249.944 330.69 248.898 330.878C239.912 332.485 230.811 333.653 221.984 335.898C202.591 340.83 187.269 351.65 176.943 369.054C176.034 370.584 174.981 371.487 173.212 370.786C171.463 370.092 170.605 368.67 171.025 366.827C171.339 365.45 171.859 364.055 172.587 362.848C181.597 347.911 194.713 337.958 210.835 331.817C222.111 327.522 233.999 325.663 245.849 323.919C257.92 322.142 257.921 322.379 262.989 311.256C265.399 305.968 267.977 300.757 270.4 295.676C269.52 294.209 268.25 294.026 267.137 293.623C259.332 290.789 251.213 289.407 243.02 288.247C221.407 285.189 200.677 287.742 181.111 297.753C173.013 301.896 165.454 306.867 160.018 314.367C157.929 317.248 156.397 320.532 157.898 324.748C159.75 323.046 161.266 321.628 162.808 320.239C174.856 309.387 188.4 301.605 204.814 299.603C210.308 298.932 215.756 298.123 220.987 300.803C225.472 303.101 228.309 306.667 228.239 311.755C228.175 316.427 225.033 319.299 221.091 321.3C217.529 323.109 213.639 323.974 209.784 324.785C200.007 326.841 190.543 329.745 182.279 335.502C171.691 342.879 163.733 351.779 165.611 366.122C166.725 374.623 166.675 374.797 175.09 374.777C175.531 374.776 175.984 374.709 176.411 374.785C180.638 375.53 183.288 373.632 185.727 370.227C191.467 362.211 198.136 355 206.794 350.011C210.966 347.607 215.216 345.08 220.973 345.856ZM248.286 160.349C263.782 158.28 279.196 155.637 294.428 152.195C308.559 149.002 322.592 145.266 336.129 139.95C344.983 136.473 353.645 132.651 360.682 125.99C363.039 123.759 365.327 121.448 365.622 117.268C359.985 122.955 353.502 126.179 346.811 129.044C325.561 138.143 303.261 143.663 280.698 148.201C268.281 150.699 255.71 152.269 243.152 153.93C228.295 155.895 213.373 157.228 198.432 157.908C186.47 158.452 174.457 158.321 162.459 157.583C147.124 156.639 131.798 155.951 117.298 148.849C119.091 152.22 121.57 154.32 124.491 155.975C129.63 158.887 135.191 160.597 140.951 161.74C151.996 163.931 163.186 164.311 174.402 164.718C184.831 165.096 195.246 164.809 205.624 164.213C219.677 163.405 233.742 162.448 248.286 160.349ZM254.532 144.982C255.45 144.793 256.367 144.604 257.284 144.416C255.939 144.229 254.613 144.198 253.32 144.392C243.071 145.931 232.793 147.048 222.407 146.892C214.931 146.78 207.388 147.178 200.273 144.219C197.791 143.187 195.488 141.848 195.105 138.758C194.694 135.442 196.65 133.345 198.996 131.594C201.57 129.673 204.539 128.452 207.567 127.395C218.012 123.75 228.818 121.719 239.745 120.28C242.323 119.941 243.61 118.617 244.174 116.015C243.477 115.96 242.942 115.824 242.433 115.891C222.371 118.539 202.294 120.978 182.507 125.493C169.92 128.365 157.64 131.993 145.7 136.825C140.33 138.998 134.969 141.237 129.952 145.152C133.957 146.994 137.811 147.27 141.547 147.834C155.053 149.873 168.681 150.238 182.309 150.453C194.201 150.641 206.058 149.752 217.896 148.851C229.961 147.933 242.025 146.872 254.532 144.982ZM295.394 371.695C295.577 374.495 297.284 375.085 299.719 374.759C302.67 374.363 301.583 372.134 301.432 370.644C300.876 365.151 299.276 359.875 297.86 354.551C293.376 337.693 284.479 323.261 273.659 309.856C273.415 309.555 272.96 309.424 272.514 309.16C272.083 309.703 271.667 310.082 271.427 310.551C267.117 318.991 262.839 327.446 258.524 335.883C257.932 337.041 257.892 338.188 258.16 339.407C260.29 349.091 261.369 358.931 262.503 368.763C263.245 375.198 263.242 375.198 269.892 374.773C270.002 374.766 270.113 374.759 270.223 374.764C271.959 374.849 272.693 373.984 272.381 372.323C271.935 369.943 271.343 367.591 270.911 365.209C269.986 360.111 268.86 354.999 271.147 349.944C272.767 346.366 276.203 344.442 279.706 345.308C281.887 345.847 283.712 347.089 285.325 348.654C291.676 354.816 294.083 362.72 295.394 371.695ZM177.717 118.81C182.656 117.716 187.568 116.474 192.54 115.556C211.496 112.054 230.588 109.447 249.702 106.993C253.567 106.497 258.651 102.022 259.715 97.8548C258.231 97.9794 256.816 98.0515 255.413 98.2239C249.183 98.9892 242.966 99.8601 236.728 100.553C217.348 102.704 198.144 105.983 179.13 110.217C167.225 112.868 155.451 116.184 143.982 120.428C135.701 123.492 127.604 126.94 120.482 132.313C118.826 133.563 117.641 135.088 117.327 137.164C117.05 138.998 117.27 140.811 118.945 141.886C120.634 142.97 121.905 141.582 123.015 140.617C128.596 135.763 135.191 132.754 141.912 129.924C153.316 125.122 165.238 122 177.717 118.81ZM269.711 142.347C278.609 140.325 287.601 138.773 296.512 136.788C310.934 133.574 324.985 129.259 338.744 123.942C343.613 122.061 348.411 119.984 353.088 116.995C352.377 116.451 352.081 116.102 351.705 115.958C350.371 115.444 349.039 114.872 347.653 114.55C335.695 111.768 323.525 111.118 311.303 111.021C309.877 111.009 308.833 111.696 307.811 112.623C301.041 118.767 294.254 124.892 287.437 130.984C282.832 135.099 278.208 139.177 272.118 141.103C271.221 141.387 269.791 140.878 269.711 142.347ZM276.529 129.761C287.666 120.073 298.376 109.887 310.318 101.143C312.164 99.791 313.777 98.0431 315.248 96.2714C322.282 87.804 319.517 78.3942 309.169 76.4085C300.052 74.6593 291.536 76.299 284.893 83.4133C277.75 91.0628 270.797 98.8901 263.743 106.623C259.14 111.668 254.491 116.679 250.442 122.187C247.468 126.233 248.166 129.777 252.244 132.696C253.799 133.809 255.519 134.41 257.403 134.762C264.394 136.069 270.39 133.554 276.529 129.761ZM332.699 374.65C335.293 372.814 333.455 370.339 333.356 368.305C332.612 352.989 326.841 339.763 316.094 328.782C314.698 327.357 313.206 325.834 310.49 325.914C310.949 330.301 312.842 333.87 314.712 337.426C320.543 348.51 326.619 359.509 328.185 372.221C328.53 375.03 330.248 374.855 332.699 374.65ZM323.779 97.5011C322.558 99.2929 321.337 101.085 320.182 102.78C320.631 103.58 321.232 103.496 321.749 103.568C322.507 103.675 323.273 103.734 324.037 103.799C335.964 104.812 348.051 105.024 358.997 110.889C360.092 111.476 361.352 111.932 362.358 110.862C363.45 109.701 363.941 108.339 363.357 106.63C362.295 103.52 359.714 102.301 356.985 101.369C347.125 98.0021 336.883 96.6833 326.549 95.9198C325.492 95.8417 324.575 96.0703 323.779 97.5011ZM399.592 374.724C401.569 374.619 401.706 372.968 401.959 371.644C402.533 368.637 403.13 365.605 403.324 362.558C403.756 355.788 403.173 349.121 400.436 342.001C394.563 352.004 391.676 361.861 393.242 372.781C393.43 374.096 394.105 374.735 395.413 374.741C396.621 374.747 397.829 374.752 399.592 374.724ZM192.195 373.374C191.967 373.769 191.813 374.475 192.217 374.498C195.57 374.689 199.136 375.779 202.167 373.716C206.806 370.56 211.475 367.388 215.376 363.286C217.199 361.37 218.991 359.401 219.831 356.807C220.168 355.767 220.618 354.607 219.674 353.701C218.764 352.827 217.58 353.159 216.537 353.49C214.218 354.227 212.086 355.365 209.994 356.611C202.946 360.812 197.78 367.002 192.195 373.374ZM247.178 374.779C248.83 374.778 250.49 374.668 252.13 374.802C254.844 375.024 255.642 373.762 255.348 371.249C254.964 367.974 254.898 364.655 254.384 361.404C253.793 357.665 253.897 353.793 252.359 349.445C247.756 357.844 243.8 365.802 240.304 374.053C241.024 374.407 241.303 374.655 241.592 374.667C243.24 374.735 244.891 374.747 247.178 374.779ZM284.773 374.78C285.814 374.633 286.998 375.139 287.846 374.152C287.949 364.373 283.669 355.094 278.092 353.247C277.294 354.627 277.321 356.146 277.342 357.686C277.404 362.365 279.294 366.714 279.747 371.32C280.016 374.042 281.509 375.206 284.773 374.78Z" fill="black"/>
<path d="M511.048 535.108C515.181 535.117 518.982 535.148 522.783 535.129C525.155 535.118 526.044 535.97 526.059 538.041C526.1 543.598 526.209 543.602 519.614 543.602C348.015 543.605 176.415 543.607 4.81592 543.587C3.34071 543.587 1.1912 544.199 0.609301 542.693C-0.211634 540.57 -0.210534 538.183 0.658318 536.042C1.0862 534.987 2.85109 535.366 4.03224 535.385C13.8638 535.544 23.6933 535.278 33.525 535.286C162.755 535.394 291.985 535.358 421.215 535.358C446.358 535.358 471.5 535.37 496.642 535.346C501.333 535.341 506.024 535.191 511.048 535.108Z" fill="black"/>
<path d="M108.952 594.53C74.0045 594.53 39.3877 594.538 4.77099 594.504C3.32419 594.502 1.14809 595.191 0.588235 593.709C-0.228187 591.548 -0.17735 589.125 0.632549 586.884C0.918838 586.092 2.10615 586.17 2.98379 586.16C5.07819 586.138 7.17297 586.141 9.26761 586.141C165.484 586.141 321.7 586.14 477.917 586.159C479.365 586.159 481.417 585.565 481.93 587.286C482.564 589.408 482.588 591.681 481.751 593.831C481.522 594.42 480.704 594.477 480.034 594.493C478.822 594.521 477.61 594.529 476.397 594.529C354.026 594.53 231.654 594.53 108.952 594.53Z" fill="black"/>
<path d="M418.347 114.13C435.025 132.52 448.17 152.903 457.665 175.597C467.138 198.238 472.67 221.759 474.144 246.326C475.167 263.374 474.109 280.204 471.402 297.007C470.966 299.71 470.083 300.869 467.343 299.605C466.85 299.377 466.292 299.184 465.758 299.167C462.228 299.053 461.809 297.153 462.409 294.113C465.652 277.67 466.049 260.996 464.828 244.4C461.647 201.167 446.343 162.533 418.832 128.984C389.494 93.2082 352.213 69.7477 307.277 58.6226C283.956 52.8489 260.316 51.5386 236.428 54.067C233.626 54.3635 230.82 55.2172 227.541 54.7282C228.44 51.8875 229.25 49.2091 230.143 46.559C230.584 45.2499 231.82 45.3388 232.91 45.2125C249.611 43.2772 266.303 43.2778 283.027 45.0762C309.866 47.9625 335.117 55.9268 359.031 68.3399C381.491 79.9987 401.034 95.4253 418.347 114.13Z" fill="black"/>
<path d="M300.047 443.129C373.687 443.13 446.99 443.132 520.294 443.133C525.276 443.133 527.132 445.743 525.477 450.334C525.125 451.309 524.432 451.64 523.469 451.672C522.237 451.713 521.004 451.724 519.771 451.724C385.381 451.728 250.991 451.73 116.601 451.731C111.069 451.731 109.619 449.904 110.99 444.805C111.29 443.691 111.943 443.2 113.09 443.175C114.322 443.148 115.555 443.132 116.788 443.132C177.762 443.13 238.736 443.129 300.047 443.129Z" fill="black"/>
<path d="M69.2973 512.607C69.2965 504.456 69.2965 496.636 69.2965 488.381C67.9051 489.304 67.3734 490.435 66.7488 491.482C62.1777 499.145 57.6133 506.813 53.0322 514.47C50.5925 518.548 47.1582 518.588 44.6482 514.505C39.4025 505.973 34.2168 497.404 28.9073 488.686C27.9587 489.566 28.4522 490.455 28.4488 491.196C28.4059 500.562 28.3385 509.93 28.4422 519.295C28.4753 522.28 27.7211 523.673 24.3583 523.538C16.7156 523.232 17.687 524.286 17.6636 516.773C17.6163 501.567 17.6455 486.36 17.654 471.153C17.6565 466.742 17.69 466.969 21.9561 466.655C25.4762 466.396 27.5441 467.573 29.3257 470.685C34.8512 480.34 40.7078 489.805 46.4495 499.335C47.1679 500.528 47.9677 501.671 49.0259 503.29C51.7133 498.782 54.1326 494.754 56.5227 490.708C60.781 483.5 65.005 476.272 69.2805 469.074C70.492 467.035 77.1587 465.681 79.0955 467.006C79.837 467.514 79.8263 468.298 79.8302 469.072C79.9155 485.816 79.9259 502.561 80.1484 519.304C80.1927 522.633 79.2243 523.716 75.8333 523.545C68.6615 523.185 69.3664 524.403 69.3088 516.905C69.2986 515.582 69.3014 514.26 69.2973 512.607Z" fill="black"/>
<path d="M91.2202 138.622C79.5514 154.722 70.4938 171.942 64.0292 190.486C63.0264 193.362 61.9273 194.728 58.7285 193.921C57.1912 193.533 55.4751 193.854 53.2788 193.854C54.0949 189.512 57.2577 184.457 58.7285 180.757C80.1432 126.888 115.411 88.7488 167.725 63.7487C173.694 60.8962 179.841 58.4577 186.049 56.1639C187.744 55.5378 188.851 55.7194 190.091 57.1158C191.607 58.8221 193.449 60.2381 195.898 62.4573C152.54 77.1467 117.817 102.183 91.2202 138.622Z" fill="black"/>
<path d="M213.243 477.54C213.251 491.758 213.186 505.646 213.319 519.532C213.348 522.501 212.499 523.441 209.429 523.586C205.485 523.772 202.938 522.461 200.516 519.365C192.912 509.645 185.005 500.163 177.203 490.598C176.311 489.503 175.346 488.468 174.371 487.355C173.098 488.516 173.609 489.794 173.604 490.906C173.557 500.605 173.491 510.305 173.624 520.003C173.662 522.717 172.901 523.635 170.085 523.556C162.545 523.343 162.543 523.468 162.545 515.965C162.549 500.975 162.638 485.985 162.488 470.997C162.456 467.755 163.236 466.568 166.69 466.606C170.161 466.644 172.524 467.495 174.773 470.38C182.36 480.111 190.299 489.568 198.116 499.119C199.224 500.474 200.402 501.771 201.746 503.325C202.465 501.978 202.223 500.78 202.226 499.661C202.257 489.852 202.304 480.042 202.214 470.233C202.192 467.808 202.731 466.616 205.49 466.681C214.155 466.883 213.13 465.899 213.228 474.234C213.239 475.226 213.238 476.218 213.243 477.54Z" fill="black"/>
<path d="M184.482 418.504C124.706 418.502 65.2554 418.499 5.80436 418.498C0.953672 418.498 -1.18821 415.411 0.657588 411.141C1.01517 410.314 1.63988 410.073 2.44068 410.045C3.76027 409.999 5.0818 409.988 6.4025 409.988C65.8535 409.985 125.304 409.986 184.755 409.986C189.589 409.986 191.858 413.151 189.837 417.34C188.802 419.487 186.499 418.128 184.482 418.504Z" fill="black"/>
<path d="M90.4888 495.99C90.6392 478.018 103.443 465.742 121.504 465.943C137.115 466.116 148.292 474.894 151.314 489.354C154.738 505.731 143.783 521.453 127.169 524.007C112.129 526.319 99.0949 519.972 93.1964 507.471C91.5259 503.931 90.7904 500.168 90.4888 495.99ZM138.467 485.73C138.12 485.169 137.8 484.589 137.42 484.051C131.474 475.665 120.258 473.153 111.298 478.193C102.859 482.94 99.3843 493.964 103.4 503.252C107.312 512.3 117.603 516.715 127.432 513.635C138.322 510.223 144.007 497.66 138.467 485.73Z" fill="black"/>
<path d="M380.267 482.17C380.272 477.654 380.275 473.468 380.284 469.282C380.287 468.005 380.392 466.735 382.121 466.777C392.012 467.019 402.008 465.564 411.778 467.554C429.212 471.106 430.903 488.098 425.153 497.696C423.158 501.025 419.958 502.979 416.573 505.198C420.647 511.116 424.616 516.882 428.606 522.678C423.462 525.078 417.123 523.473 414.168 519.215C411.907 515.958 409.595 512.737 407.365 509.46C406.503 508.194 405.535 507.353 403.888 507.377C400.585 507.424 397.279 507.406 393.976 507.336C391.986 507.295 391.244 508.187 391.287 510.14C391.365 513.662 391.233 517.19 391.309 520.713C391.35 522.661 390.629 523.509 388.62 523.481C378.471 523.342 380.391 524.798 380.294 515.876C380.175 504.752 380.267 493.626 380.267 482.17ZM394.289 497.855C399.008 497.619 403.768 498.414 408.452 497.254C414.371 495.788 417.023 492.157 416.684 485.917C416.41 480.879 412.795 477.015 407.277 476.531C402.787 476.137 398.245 476.326 393.726 476.26C392.129 476.236 391.29 476.908 391.302 478.628C391.341 484.252 391.336 489.876 391.296 495.499C391.284 497.196 392.043 497.936 394.289 497.855Z" fill="black"/>
<path d="M468.6 302.544C486.319 310.257 491.719 330.52 479.761 344.697C472.588 353.201 463.088 356.131 452.354 353.204C442.039 350.391 435.482 343.389 433.295 332.868C429.028 312.344 448.918 295.435 468.6 302.544ZM473.522 321.413C469.202 313.657 461.268 310.659 453.73 313.934C446.812 316.939 443.158 324.835 445.372 331.993C447.918 340.224 456.481 344.787 464.393 342.128C472.848 339.287 476.786 330.723 473.522 321.413Z" fill="black"/>
<path d="M326.062 504.669C326.067 493.095 326.162 481.852 326.018 470.611C325.979 467.58 326.936 466.617 329.971 466.658C341.321 466.81 352.675 466.713 364.028 466.732C368.076 466.739 368.076 466.77 368.069 471.85C368.064 475.973 367.892 476.182 363.82 476.193C356.105 476.214 348.388 476.278 340.674 476.144C338.099 476.1 337.087 476.838 337.351 479.528C337.564 481.702 337.388 483.935 337.188 486.124C336.941 488.83 337.63 490.105 340.745 489.998C347.46 489.769 354.195 490.094 360.91 489.861C364.651 489.731 364.699 491.864 364.637 494.5C364.578 497.072 365.039 499.65 360.932 499.5C354.328 499.258 347.704 499.565 341.096 499.368C337.993 499.275 336.994 500.301 337.35 503.362C337.615 505.637 337.51 508.009 337.194 510.285C336.78 513.27 337.593 514.471 340.825 514.397C348.977 514.21 357.139 514.465 365.291 514.266C368.354 514.191 369.452 514.969 369.077 518.162C368.455 523.458 368.608 523.472 363.258 523.473C352.236 523.473 341.211 523.333 330.193 523.568C326.696 523.642 325.836 522.457 326.001 519.215C326.242 514.488 326.063 509.739 326.062 504.669Z" fill="black"/>
<path d="M434.299 516.184C441.322 500.585 448.282 485.232 455.107 469.82C456.165 467.431 457.644 466.908 460.125 466.606C465.556 465.945 468.293 467.941 470.451 473.046C477.098 488.771 484.354 504.237 491.362 519.809C491.802 520.788 492.494 521.732 491.955 523.4C488.957 523.4 485.805 523.426 482.654 523.388C481.298 523.371 480.874 522.242 480.429 521.237C479.268 518.618 478.041 516.023 477.03 513.346C476.304 511.423 475.184 510.638 473.084 510.668C465.7 510.776 458.313 510.776 450.928 510.695C448.717 510.671 447.393 511.47 446.772 513.591C446.496 514.536 446.007 515.418 445.613 516.328C442.199 524.222 440.809 524.908 431.64 523.031C431.912 520.602 433.447 518.64 434.299 516.184ZM464.973 485.294C463.99 483.214 463.43 480.904 461.69 478.747C458.416 486.501 455.325 493.821 452.198 501.225C456.667 502.218 469.295 501.961 471.589 500.847C469.451 495.827 467.307 490.794 464.973 485.294Z" fill="black"/>
<path d="M248.319 490.512C252.12 491.398 255.641 492.296 259.003 493.698C264.622 496.043 268.382 500.002 268.708 506.285C269.014 512.185 266.731 517.11 261.611 520.312C253.269 525.53 244.237 525.138 235.095 523.156C231.743 522.429 228.593 521.142 225.626 519.377C223.697 518.23 222.91 516.889 224.154 514.79C225.2 513.023 225.544 510.862 227.224 509.152C231.756 511.8 236.35 514.099 241.588 514.76C245.241 515.221 248.843 515.215 252.383 514.171C255.234 513.331 257.424 511.565 257.688 508.499C257.952 505.435 255.789 503.725 253.214 502.617C249.151 500.868 244.768 500.185 240.561 498.916C238.039 498.155 235.496 497.38 233.097 496.311C227.723 493.916 224.472 489.752 224.268 483.802C224.066 477.913 226.392 473.003 231.502 469.808C239.55 464.777 248.284 465.352 257.084 467.079C259.574 467.567 261.948 468.457 264.215 469.633C265.861 470.487 266.282 471.527 265.586 473.374C263.336 479.34 263.431 479.297 257.327 477.124C252.173 475.29 246.9 474.395 241.451 475.845C237.883 476.794 235.568 479.034 235.43 482.031C235.269 485.522 237.653 487.122 240.485 488.144C242.964 489.038 245.527 489.701 248.319 490.512Z" fill="black"/>
<path d="M28.0556 279.366C22.265 271.065 21.3315 262.456 25.7349 253.586C30.0438 244.907 37.5172 240.612 46.9784 240.076C58.3149 239.433 68.9793 248.035 71.4555 259.344C74.0037 270.982 67.7247 282.83 56.6499 287.282C46.2966 291.443 35.8056 288.594 28.0556 279.366ZM55.6577 252.743C54.6848 252.237 53.748 251.64 52.7333 251.24C46.0399 248.603 38.6603 251.2 35.0761 257.412C31.5188 263.577 32.9931 271.528 38.4951 275.849C44.1001 280.252 52.0266 279.963 57.2489 275.165C63.999 268.964 63.4864 259.538 55.6577 252.743Z" fill="black"/>
<path d="M283.162 476.233C279.752 476.233 276.665 476.192 273.579 476.246C271.446 476.283 270.349 475.587 270.387 473.194C270.509 465.547 269.884 466.773 276.643 466.74C289.431 466.678 302.218 466.722 315.005 466.738C318.763 466.743 318.767 466.838 318.898 471.724C318.971 474.431 318.761 476.522 315.11 476.292C311.267 476.05 307.392 476.347 303.54 476.196C300.832 476.089 299.918 477.066 299.942 479.823C300.059 493.16 299.913 506.5 300.049 519.837C300.079 522.739 299.252 523.633 296.315 523.552C288.969 523.35 288.962 523.489 288.962 516.27C288.961 504.695 288.968 493.121 288.965 481.546C288.964 476.237 288.957 476.237 283.162 476.233Z" fill="black"/>
<path d="M482.149 561.009C495.9 561.009 509.437 560.999 522.974 561.032C523.92 561.035 525.223 560.4 525.67 562.056C526.218 564.092 526.176 566.441 525.683 568.513C525.34 569.953 524.196 569.42 523.388 569.422C512.487 569.451 501.586 569.441 490.685 569.44C479.997 569.44 469.31 569.451 458.623 569.412C457.767 569.409 456.557 570.016 456.242 568.213C455.872 566.1 455.692 563.791 456.466 561.803C456.944 560.574 458.022 561.031 458.85 561.028C466.545 561.001 474.24 561.011 482.149 561.009Z" fill="black"/>
<path d="M191.554 56.3123C182.653 43.6908 187.508 27.8369 201.44 23.3426C212.63 19.7326 225.018 26.5859 227.781 37.9155C230.703 49.8955 223.17 61.5644 211.231 63.5708C203.385 64.889 196.955 62.3311 191.554 56.3123ZM214.863 52.9115C220.859 47.6982 221.385 39.513 216.055 34.3836C210.922 29.4437 202.811 29.9641 198.236 35.527C194.53 40.035 194.586 46.4724 198.372 50.9866C202.335 55.7108 208.295 56.5249 214.863 52.9115Z" fill="black"/>
<path d="M74.3482 207.632C76.6519 217.289 71.0241 226.753 61.9785 228.794C52.5536 230.922 43.0796 225.043 41.0283 215.796C38.9409 206.384 45.2732 196.964 54.9054 195.15C63.1882 193.59 71.0151 198.519 74.3482 207.632ZM57.378 203.841C56.4254 204.088 55.4263 204.226 54.5279 204.603C50.3248 206.367 48.4073 211.549 50.3762 215.674C52.4751 220.071 57.5749 221.733 61.7645 219.384C65.0112 217.564 66.5726 214.199 65.9099 210.451C65.2829 206.906 62.5548 204.652 57.378 203.841Z" fill="black"/>
<path d="M264.346 65.8892C266.698 75.717 261.789 84.238 253.026 85.9306C243.877 87.6981 235.929 82.0424 234.393 72.67C233.289 65.9313 237.708 58.7202 244.442 56.2736C251.348 53.7649 259.376 56.641 263.014 62.9556C263.505 63.8074 263.851 64.7421 264.346 65.8892ZM242.964 67.2897C241.257 72.4901 242.947 76.6634 247.324 78.0581C251.361 79.3443 255.543 77.2745 256.907 73.315C258.128 69.7754 256.772 66.0955 253.553 64.2076C249.908 62.0699 246.534 62.9297 242.964 67.2897Z" fill="black"/>
<path d="M445.883 286.328C439.666 289.547 433.955 289.002 429.454 284.914C425.238 281.085 423.783 274.755 425.918 269.534C428.102 264.194 433.414 260.761 439.177 260.963C445.067 261.171 449.96 265.042 451.744 270.907C453.472 276.588 451.344 282.343 445.883 286.328ZM435.738 279.097C439.649 280.787 443.303 279.212 443.803 275.564C444.174 272.86 443.166 270.849 440.548 269.796C438.08 268.803 435.937 269.395 434.444 271.505C432.601 274.111 432.923 276.639 435.738 279.097Z" fill="black"/>
<path d="M233.327 5.62578C238.16 -0.104741 244.569 -1.52963 250.256 1.68378C255.575 4.68928 257.952 11.2025 255.883 17.1019C253.447 24.0459 245.706 27.3907 238.889 24.4444C231.672 21.3255 229.229 13.3484 233.327 5.62578ZM246.805 7.88694C244.14 6.66089 241.584 6.75108 239.609 9.06192C237.865 11.1025 237.819 13.5473 239.197 15.8184C240.555 18.0565 242.758 18.645 245.227 18.144C247.35 17.7131 248.664 16.3383 249.306 14.2736C250.101 11.715 249.096 9.79223 246.805 7.88694Z" fill="black"/>
<path d="M88.2329 251.001C82.2582 253.605 77.1215 252.585 73.7716 248.306C70.5579 244.201 70.3651 238.475 73.3849 234.507C76.3358 230.63 80.3273 229.088 85.0321 230.132C89.729 231.173 92.7471 234.158 93.6533 239.024C94.6077 244.149 92.683 248.018 88.2329 251.001ZM83.31 244.386C85.4453 243.446 86.4358 241.898 85.3555 239.68C84.6435 238.217 83.303 237.319 81.5646 237.833C79.8074 238.353 78.7955 239.584 78.9554 241.507C79.1518 243.869 80.6515 244.629 83.31 244.386Z" fill="black"/>
<path d="M388.349 566.204C388.352 563.339 388.298 560.802 388.385 558.27C388.428 557.033 387.985 555.433 389.699 554.901C391.417 554.369 392.615 555.283 393.645 556.604C395.948 559.559 398.314 562.465 400.645 565.399C401.053 565.913 401.412 566.465 402.279 567.679C403.065 563.776 402.618 560.757 402.768 557.784C402.839 556.363 402.593 554.801 404.818 554.794C406.869 554.789 407.109 556.099 407.11 557.656C407.113 562.726 407.126 567.797 407.1 572.867C407.094 573.946 407.198 575.176 405.746 575.529C404.439 575.847 403.379 575.417 402.525 574.378C399.528 570.728 396.517 567.091 392.637 563.566C392.637 566.654 392.652 569.743 392.631 572.832C392.622 574.165 392.714 575.579 390.723 575.625C388.714 575.67 388.372 574.413 388.371 572.816C388.371 570.721 388.358 568.627 388.349 566.204Z" fill="black"/>
<path d="M91.2182 560.958C91.2221 559.754 91.1825 558.87 91.2412 557.993C91.3189 556.834 90.9748 555.408 92.5169 554.925C94.072 554.438 95.2544 555.117 96.2459 556.355C99.0948 559.911 101.991 563.429 105.656 566.688C105.656 563.653 105.641 560.618 105.664 557.583C105.674 556.252 105.587 554.859 107.577 554.798C109.561 554.737 109.987 555.905 109.986 557.535C109.984 562.599 110.011 567.663 109.98 572.727C109.974 573.788 110.144 575.075 108.752 575.488C107.345 575.905 106.214 575.404 105.276 574.242C102.513 570.815 99.6994 567.428 96.8949 564.034C96.6403 563.726 96.3106 563.48 95.5311 562.753C95.5311 566.463 95.5278 569.613 95.5325 572.763C95.5347 574.305 95.3866 575.685 93.2896 575.597C91.4282 575.52 91.2449 574.238 91.2371 572.841C91.2156 568.989 91.2226 565.135 91.2182 560.958Z" fill="black"/>
<path d="M309.009 572.084C304.154 576.933 298.238 575.591 292.61 575.512C291.201 575.492 291.024 574.175 291.02 573.037C291.001 567.76 291.013 562.484 291.011 557.207C291.011 555.829 291.447 554.788 293.039 554.801C296.333 554.828 299.703 554.47 302.904 555.04C310.978 556.478 313.92 564.699 309.009 572.084ZM304.867 570.368C307.229 568.4 307.253 565.744 306.757 563.104C306.122 559.727 302.582 558.011 297.713 558.453C293.711 558.817 295.859 561.902 295.388 563.792C295.156 564.722 295.349 565.758 295.349 566.747C295.35 572.12 296.404 572.983 301.749 571.822C302.691 571.618 303.556 571.062 304.867 570.368Z" fill="black"/>
<path d="M171.259 554.742C178.957 555.067 182.862 560.412 179.68 565.924C179.037 567.037 178.024 567.936 177.122 569.005C177.518 571.285 179.991 572.561 180.3 575.107C177.827 576.409 176.294 575.381 174.873 573.328C173.862 571.867 173.258 569.854 170.91 569.729C168.9 569.622 167.381 569.834 167.574 572.45C167.688 574.008 167.711 575.668 165.336 575.614C162.921 575.559 163.244 573.8 163.232 572.307C163.194 567.786 163.394 563.254 163.15 558.746C162.974 555.496 164.18 554.323 167.313 554.718C168.507 554.868 169.736 554.742 171.259 554.742ZM167.703 559.688C167.427 566.073 167.981 566.797 172.571 565.931C174.796 565.511 176.096 564.235 176.003 561.848C175.911 559.486 174.376 558.586 172.3 558.532C170.826 558.493 169.216 557.955 167.703 559.688Z" fill="black"/>
<path d="M339.332 570.823C335.352 568.752 334.149 569.315 333.728 573.33C333.579 574.749 333.161 575.608 331.582 575.609C330.037 575.61 329.381 574.819 329.38 573.375C329.373 567.878 329.374 562.381 329.392 556.884C329.396 555.788 329.801 554.883 331.058 554.847C334.347 554.754 337.661 554.389 340.914 555.076C343.809 555.687 345.916 557.386 346.682 560.344C347.594 563.866 346.13 566.553 343.327 568.72C343.717 571.174 346.148 572.628 346.578 575.141C342.151 576.998 341.416 572.999 339.332 570.823ZM342.499 561.982C341.749 557.995 338.655 558.491 335.818 558.484C334.509 558.481 333.613 559.039 333.785 560.418C334.014 562.247 332.682 564.587 334.856 565.807C337.554 567.32 341.299 565.539 342.499 561.982Z" fill="black"/>
<path d="M57.8401 574.445C57.684 568.65 57.6456 563.14 57.5817 557.629C57.5579 555.574 58.4278 554.647 60.5795 554.724C63.8839 554.842 67.1955 554.744 70.5038 554.772C71.6291 554.782 72.7914 554.834 72.8759 556.407C72.9674 558.111 71.8534 558.402 70.5167 558.417C68.5318 558.44 66.5464 558.483 64.5619 558.456C62.8641 558.433 62.2124 559.248 62.2318 560.897C62.2512 562.551 62.951 563.337 64.625 563.304C66.168 563.273 67.7129 563.304 69.2563 563.337C70.4052 563.363 71.5236 563.469 71.5781 565.028C71.6385 566.756 70.462 566.962 69.1601 566.987C67.7268 567.014 66.2915 567.054 64.8597 567.007C63.082 566.949 62.2405 567.658 62.2386 569.528C62.2366 571.453 63.1883 572.007 64.9207 571.971C67.1246 571.925 69.3316 571.971 71.536 572.027C72.4948 572.051 73.2523 572.455 73.4007 573.528C73.5155 574.357 73.3226 575.372 72.4809 575.388C67.6275 575.475 62.7072 576.708 57.8401 574.445Z" fill="black"/>
<path d="M428.724 575.596C426.718 575.55 426.575 574.356 426.575 573.066C426.573 567.776 426.576 562.485 426.574 557.195C426.573 555.853 426.84 554.81 428.54 554.79C430.275 554.769 430.896 555.666 430.892 557.243C430.888 559.218 430.891 561.192 430.891 563.44C436.067 561.562 437.309 553.959 444.465 554.977C442.81 557.912 440.671 559.812 438.741 561.825C437.141 563.495 436.886 564.726 438.514 566.551C440.827 569.143 442.87 571.976 445.429 575.212C438.283 576.979 437.701 569.779 433.549 568.032C431.663 568.777 430.84 570.234 430.888 572.36C430.92 573.743 431.145 575.389 428.724 575.596Z" fill="black"/>
<path d="M201.554 556.54C205.895 554.002 210.119 553.886 214.35 556.07C215.366 556.595 216.762 557.289 216.02 558.805C215.264 560.351 214.027 560.517 212.444 559.627C209.378 557.903 206.261 557.879 203.585 560.377C201.469 562.352 200.972 564.861 202.031 567.633C202.947 570.032 204.797 571.313 207.171 571.829C210.547 572.564 212.066 571.333 212.243 567.868C212.323 566.302 212.15 564.635 214.531 564.735C216.679 564.825 216.522 566.374 216.556 567.81C216.625 570.774 217.059 573.718 213.138 575.023C208.39 576.604 202.943 575.743 199.948 572.424C195.622 567.631 196.192 561.245 201.554 556.54Z" fill="black"/>
<path d="M143.915 572.213C145.767 574.455 145.079 575.588 142.576 575.647C139.054 575.73 135.528 575.636 132.004 575.673C130.191 575.693 129.432 574.863 129.445 573.072C129.485 567.786 129.498 562.499 129.452 557.213C129.436 555.323 130.357 554.719 132.098 554.746C135.401 554.796 138.706 554.756 142.01 554.766C143.323 554.769 144.481 554.982 144.385 556.723C144.3 558.254 143.211 558.396 142.054 558.414C140.072 558.443 138.088 558.488 136.107 558.447C134.376 558.412 133.815 559.269 133.808 560.894C133.802 562.551 134.433 563.349 136.136 563.314C137.896 563.277 139.659 563.338 141.421 563.355C142.593 563.367 143.333 563.872 143.3 565.123C143.268 566.311 142.598 566.929 141.414 566.953C139.762 566.987 138.109 567.055 136.459 567.009C134.721 566.96 133.808 567.544 133.795 569.461C133.782 571.337 134.576 572.004 136.373 571.978C138.792 571.943 141.214 572.058 143.915 572.213Z" fill="black"/>
<path d="M267.446 420.521C263.71 416.394 263.406 411.867 265.222 407.142C266.426 404.009 268.915 402.24 272.308 402.107C275.457 401.984 278.383 404.126 279.569 407.35C280.57 410.072 280.846 412.868 280.089 415.745C278.466 421.908 273.094 424.061 267.446 420.521ZM276.486 410.622C276.139 407.921 274.91 405.949 271.911 406.144C268.976 406.334 268.399 408.663 268.137 411.067C268.078 411.608 268.073 412.158 268.089 412.703C268.199 416.308 269.661 418.402 272.111 418.489C274.831 418.585 276.332 416.698 276.597 412.814C276.634 412.272 276.575 411.724 276.486 410.622Z" fill="black"/>
<path d="M303.804 402.487C305.55 402.497 306.983 402.494 308.416 402.523C309.511 402.545 310.377 402.873 310.423 404.187C310.474 405.646 309.582 406.102 308.331 406.151C307.23 406.194 306.126 406.175 305.025 406.227C304.039 406.273 302.956 406.237 302.899 408.131C308.395 408.18 312.684 409.877 311.865 416.628C311.51 419.554 308.999 421.882 305.837 422.346C302.651 422.815 299.786 421.25 298.419 418.258C299.653 416.735 300.966 417.069 302.466 417.936C303.999 418.822 305.694 418.945 307.082 417.671C308.356 416.502 308.606 414.906 307.651 413.46C306.487 411.698 304.648 411.761 302.89 412.367C298.664 413.822 298.402 413.642 298.946 409.084C299.077 407.994 299.511 406.915 299.49 405.838C299.434 402.965 300.986 402.203 303.804 402.487Z" fill="black"/>
<path d="M286.079 408.718C285.045 410.041 283.997 409.755 283.107 408.984C282.294 408.28 282.77 407.331 283.054 406.519C284.266 403.055 288.498 401.237 292.023 402.637C295.629 404.068 297.451 408.111 296.042 411.536C295.012 414.039 292.977 415.774 291.154 417.746C292.31 418.958 293.728 418.266 294.939 418.542C296.102 418.808 296.648 419.377 296.581 420.582C296.516 421.737 295.775 422.086 294.813 422.092C290.681 422.115 286.547 422.102 282.16 422.102C282.545 419.882 284.128 419.292 285.18 418.322C287.281 416.387 289.608 414.68 291.331 412.369C292.626 410.63 293.852 408.657 291.544 406.908C289.243 405.163 287.445 406.214 286.079 408.718Z" fill="black"/>
<path d="M258.322 418.444C260.11 418.904 262.905 417.358 262.961 420.262C263.019 423.26 260.206 422.057 258.614 422.093C255.363 422.167 252.076 422.477 248.658 421.854C248.889 419.917 250.466 419.286 251.518 418.315C253.855 416.157 256.442 414.252 258.214 411.545C259.361 409.795 259.719 407.912 257.74 406.626C255.909 405.435 254.069 405.991 252.919 407.854C252.144 409.11 251.277 410.21 249.845 409.297C248.13 408.204 249.284 406.713 249.94 405.543C251.701 402.404 255.96 401.258 259.137 402.952C262.433 404.71 263.739 408.594 262.176 411.974C261.184 414.121 259.581 415.766 257.825 417.284C257.143 417.875 256.984 418.304 258.322 418.444Z" fill="black"/>
<path d="M214.404 418.363C216.384 418.8 217.808 419.483 215.718 421.273C213.391 423.268 209.523 423.154 206.802 421.165C204.174 419.245 203.04 415.487 204.133 412.32C205.391 408.676 208.14 406.841 211.937 407.111C215.044 407.332 217.286 409.406 218.057 412.634C218.618 414.982 217.977 416.174 215.367 416.227C213.004 416.276 210.577 415.788 208.026 416.668C209.541 419.856 211.825 419.249 214.404 418.363ZM210.366 413.25C211.537 413.017 212.97 413.76 213.863 412.378C211.531 409.59 210.102 409.699 208.112 412.763C208.573 413.4 209.273 413.17 210.366 413.25Z" fill="black"/>
<path d="M251.834 555.456C250.569 558.094 249.348 560.56 247.879 562.867C245.786 566.155 243.769 569.392 244.431 573.565C244.597 574.609 244.287 575.579 242.923 575.629C241.782 575.671 240.243 575.593 240.387 574.228C241.157 566.91 236.072 562.041 233.176 556.257C233.044 555.993 233.115 555.628 233.067 554.987C239.823 553.985 238.865 561.434 242.903 563.64C244.238 561.491 245.705 559.33 246.959 557.052C248.095 554.987 249.503 554.1 251.834 555.456Z" fill="black"/>
<path d="M230.384 416.872C230.747 419.751 229.361 421.279 227.123 422.216C224.764 423.203 222.579 422.764 220.621 421.208C219.81 420.563 219.21 419.723 219.968 418.649C220.611 417.739 221.415 417.875 222.285 418.365C223.694 419.158 225.113 419.412 226.544 418.409C226.327 416.327 224.556 416.334 223.415 415.701C220.175 413.907 219.073 411.472 220.608 409.128C222.058 406.916 226.348 406.345 228.67 408.071C229.384 408.601 230.193 409.191 229.626 410.226C229.103 411.18 228.297 411.632 227.139 411.151C226.194 410.759 225.234 409.815 223.848 411.324C225.274 413.907 229.375 413.539 230.384 416.872Z" fill="black"/>
<path d="M369.329 572.017C369.254 574.006 369.348 575.782 366.823 575.626C364.501 575.483 364.636 573.729 364.755 572.257C365.154 567.333 364.279 562.401 364.936 557.482C365.11 556.183 364.875 554.785 366.899 554.773C368.909 554.761 369.264 556.014 369.277 557.564C369.316 562.277 369.316 566.991 369.329 572.017Z" fill="black"/>
<path d="M50.5511 229.849C53.658 231.056 54.8286 236.624 52.6797 238.893C52.1653 239.436 51.4823 239.531 50.8509 239.343C48.8074 238.736 46.7028 239.069 44.4068 238.901C43.5119 235.13 44.887 231.617 45.1345 227.894C47.3727 227.847 48.6712 229.277 50.5511 229.849Z" fill="black"/>
<path d="M239.339 410.552C237.235 410.856 236.716 412.096 236.921 413.698C237.153 415.519 235.964 417.866 238.476 418.915C239.501 419.342 240.344 419.654 240.083 420.933C239.822 422.214 238.676 422.222 237.733 422.33C235.248 422.616 233.684 421.018 233.365 418.078C233.06 415.266 233.954 412.435 231.706 409.699C230.358 408.058 233.137 406.336 234.222 404.907C235.036 403.835 236.4 404.802 236.958 406.126C237.242 406.8 237.862 407.004 238.521 407.2C240.391 407.756 240.678 408.875 239.339 410.552Z" fill="black"/>
<path d="M140.021 275.891C141.855 276.093 141.142 274.526 141.189 273.92C142.23 260.316 147.894 248.464 154.926 237.113C155.439 236.286 155.837 235.18 157.053 235.324C158.434 235.488 159.031 236.645 159.467 237.793C161.39 242.861 162.412 248.201 163.243 253.488C164.454 261.196 165.202 269.01 162.384 276.676C160.712 281.223 158.012 285.048 154.926 288.668C154.212 289.505 153.413 290.273 152.624 291.042C148.035 295.51 144.047 300.177 145.674 307.362C145.981 308.714 146.032 310.402 144.696 312.19C142.675 309.439 140.855 307.063 140.836 303.788C140.784 294.842 138.256 286.409 135.548 278.007C134.969 276.211 133.934 275.004 132.163 274.234C121.406 269.562 115.393 261.199 112.897 249.875C110.798 240.347 111.313 230.572 109.713 221.014C109.44 219.385 109.084 217.753 109.018 216.112C108.906 213.367 110.898 212.042 113.087 213.663C126 223.226 137.883 233.725 141.981 250.21C143.483 256.254 142.279 262.259 140.329 268.088C139.487 270.606 138.464 273.098 140.021 275.891ZM124.18 249.779C123.602 248.031 122.39 245.883 124.686 244.833C127.288 243.643 127.965 246.191 128.809 247.918C130.356 251.083 131.827 254.285 133.342 257.465C134.242 259.356 135.167 261.234 136.31 263.592C140.204 250.182 128.585 228.044 115.541 223.041C114.898 226.153 115.843 229.173 116.034 232.204C116.52 239.881 116.908 247.619 119.928 254.856C122.22 260.349 125.805 264.719 131.652 267.712C130.48 260.926 126.77 255.856 124.18 249.779ZM156.882 249.151C156.534 248.412 156.857 247.343 155.563 246.835C148.22 258.001 145.881 270.536 145.13 284.457C147.382 279.084 149.254 274.517 151.221 269.992C151.78 268.707 152.497 267.025 154.286 267.679C156.2 268.379 156.276 270.125 155.61 271.855C154.978 273.5 154.251 275.108 153.618 276.753C152.601 279.392 151.132 281.887 150.927 284.812C155.77 280.226 158.563 274.717 158.822 268.009C159.063 261.796 158.101 255.707 156.882 249.151Z" fill="black"/>
<path d="M403.638 263.142C404.02 266.852 404.415 270.575 404.797 274.298C404.887 275.171 405.03 276.055 404.977 276.923C404.914 277.967 404.502 278.933 403.264 278.98C402.233 279.02 401.465 278.258 401.482 277.361C401.579 272.227 397.667 270.919 394.014 269.4C387.69 266.771 383.234 262.277 380.444 256.076C378.816 252.459 377.147 248.858 375.628 245.196C374.424 242.293 375.148 241.424 378.361 241.675C384.144 242.127 389.259 244.233 393.704 247.959C394.619 248.726 395.52 249.509 397.08 250.841C396.181 246.146 395.202 242.283 393.695 238.559C393.086 237.056 391.596 236.721 390.249 236.243C384.229 234.102 378.153 232.102 372.495 229.063C365.351 225.225 360.024 219.704 356.884 212.172C354.805 207.184 353.147 202.05 351.734 196.839C350.988 194.092 351.957 193.122 354.79 193.871C361.71 195.702 368.622 197.567 375.516 199.496C379.573 200.632 383.321 202.436 386.848 204.786C390.288 207.078 392.749 209.993 394.05 213.94C395.369 217.94 396.376 222.018 396.426 226.217C396.497 232.092 397.053 237.791 399.023 243.424C401.202 249.656 402.382 256.188 403.55 262.948C403.657 263.181 403.646 263.154 403.638 263.142ZM357.08 200.545C358.105 203.456 359.089 206.383 360.162 209.276C364.221 220.223 378.805 231.037 389.715 231.194C389.719 229.543 388.836 228.253 387.938 227.014C384.276 221.962 379.849 217.701 374.576 214.345C372.81 213.22 370.975 212.201 369.239 211.034C368.323 210.417 367.363 209.558 368.166 208.31C368.894 207.177 370.046 207.383 371.129 207.857C371.532 208.033 371.924 208.237 372.312 208.444C379.112 212.066 385.053 216.716 389.751 222.887C390.36 223.687 390.809 224.799 392.085 224.936C392.385 215.342 388.525 209.125 379.976 205.208C373.092 202.053 365.528 201.317 358.396 199.051C357.395 198.732 356.906 199.017 357.08 200.545ZM381.373 248.921C386.058 260.008 390.098 264.673 395.714 265.415C394.325 263.074 392.238 261.434 390.379 259.583C389.455 258.664 388.175 257.616 389.43 256.26C390.611 254.984 391.864 255.89 392.878 256.808C394.667 258.429 396.414 260.097 398.749 262.278C395.605 253.01 387.649 246.2 380.844 246.352C380.354 247.17 381.014 247.792 381.373 248.921Z" fill="black"/>
<path d="M126.121 338.107C123.789 332.078 121.954 326.196 122.238 319.886C122.373 316.87 123.838 315.76 126.217 317.151C137.166 323.553 146.773 331.228 150.929 343.961C153.123 350.683 152.487 357.473 151.662 364.25C151.456 365.949 149.901 366.422 148.401 365.205C147.558 364.52 146.964 363.441 146.039 362.956C135.857 357.613 129.932 348.877 126.121 338.107ZM142.078 344.512C144.601 347.18 145.62 350.866 148.158 353.827C148.82 340.166 136.478 326.61 126.814 323.055C126.092 333.158 135.475 351.256 144.172 356.364C143.316 353.252 141.308 350.855 139.992 348.116C139.129 346.321 138.475 344.413 142.078 344.512Z" fill="black"/>
<path d="M235.836 303.065C234.048 299.245 234.966 297.313 238.675 296.808C243.225 296.188 247.395 297.475 251.19 299.854C252.958 300.962 254.665 302.673 253.843 304.987C252.985 307.404 250.644 308.405 248.236 308.179C243.721 307.754 239.379 306.626 235.836 303.065Z" fill="black"/>
<path d="M310.78 91.8553C307.26 101.373 297.05 108.657 287.661 108.54C281.025 108.458 276.728 103.025 278.15 96.5151C280.287 86.7322 289.839 79.1006 299.934 79.1119C307.035 79.1199 311.887 84.6584 310.78 91.8553ZM296.389 98.0696C297.129 97.3513 298.306 96.9618 298.279 95.6477C297.493 94.9406 296.573 95.219 295.74 95.2015C293.553 95.1555 291.363 95.1582 289.177 95.2289C287.218 95.2922 286.043 96.3835 286.157 98.3442C286.278 100.425 287.768 101.049 289.645 100.863C291.994 100.631 294.001 99.4932 296.389 98.0696Z" fill="black"/>
<path d="M257.513 127.934C254.606 123.714 255.107 120.043 258.207 116.336C260.849 113.177 263.552 110.202 267.411 108.545C274.144 105.656 281.522 109.307 282.386 115.943C282.457 116.483 282.545 117.044 282.474 117.575C281.55 124.464 271.221 132.691 264.444 131.898C261.7 131.577 259.533 130.094 257.513 127.934ZM269.039 116.862C267.943 117.77 266.783 118.612 265.77 119.604C264.756 120.596 263.466 121.85 264.652 123.272C265.918 124.789 267.712 124.322 269.087 123.228C270.539 122.073 271.855 120.724 273.102 119.343C273.802 118.568 274.742 117.578 273.996 116.444C273.279 115.354 272.031 115.733 270.969 115.973C270.444 116.092 269.958 116.389 269.039 116.862Z" fill="black"/>
</svg>
